<mxfile host="Electron" modified="2024-10-11T14:16:20.115Z" agent="Mozilla/5.0 (Windows NT 10.0; Win64; x64) AppleWebKit/537.36 (KHTML, like Gecko) draw.io/24.6.1 Chrome/124.0.6367.207 Electron/30.0.6 Safari/537.36" etag="bCs3FrUK25b4CcLX407o" version="24.6.1" type="device">
  <diagram name="Page-1" id="Vo97Hetimg5gCzkvZy_h">
    <mxGraphModel dx="768" dy="538" grid="1" gridSize="10" guides="1" tooltips="1" connect="1" arrows="1" fold="1" page="1" pageScale="1" pageWidth="1920" pageHeight="1200" math="0" shadow="0">
      <root>
        <mxCell id="0" />
        <mxCell id="1" parent="0" />
        <mxCell id="TSalJSn5wfL2_M_Q7V2A-1" value="Mahasiswa1" style="swimlane;fontStyle=0;childLayout=stackLayout;horizontal=1;startSize=26;fillColor=none;horizontalStack=0;resizeParent=1;resizeParentMax=0;resizeLast=0;collapsible=1;marginBottom=0;whiteSpace=wrap;html=1;" parent="1" vertex="1">
          <mxGeometry x="40" y="280" width="200" height="110" as="geometry" />
        </mxCell>
        <mxCell id="TSalJSn5wfL2_M_Q7V2A-2" value="Nama : Ardhi Rahardhian&amp;nbsp;" style="text;strokeColor=none;fillColor=none;align=left;verticalAlign=top;spacingLeft=4;spacingRight=4;overflow=hidden;rotatable=0;points=[[0,0.5],[1,0.5]];portConstraint=eastwest;whiteSpace=wrap;html=1;" parent="TSalJSn5wfL2_M_Q7V2A-1" vertex="1">
          <mxGeometry y="26" width="200" height="26" as="geometry" />
        </mxCell>
        <mxCell id="TSalJSn5wfL2_M_Q7V2A-3" value="NIM : 23.240.0071" style="text;strokeColor=none;fillColor=none;align=left;verticalAlign=top;spacingLeft=4;spacingRight=4;overflow=hidden;rotatable=0;points=[[0,0.5],[1,0.5]];portConstraint=eastwest;whiteSpace=wrap;html=1;" parent="TSalJSn5wfL2_M_Q7V2A-1" vertex="1">
          <mxGeometry y="52" width="200" height="26" as="geometry" />
        </mxCell>
        <mxCell id="TSalJSn5wfL2_M_Q7V2A-4" value="Jurusan : Teknik Informatika&lt;div&gt;&lt;br&gt;&lt;/div&gt;" style="text;strokeColor=none;fillColor=none;align=left;verticalAlign=top;spacingLeft=4;spacingRight=4;overflow=hidden;rotatable=0;points=[[0,0.5],[1,0.5]];portConstraint=eastwest;whiteSpace=wrap;html=1;" parent="TSalJSn5wfL2_M_Q7V2A-1" vertex="1">
          <mxGeometry y="78" width="200" height="32" as="geometry" />
        </mxCell>
        <mxCell id="TSalJSn5wfL2_M_Q7V2A-25" style="edgeStyle=orthogonalEdgeStyle;rounded=0;orthogonalLoop=1;jettySize=auto;html=1;exitX=0;exitY=0.75;exitDx=0;exitDy=0;entryX=0.5;entryY=-0.013;entryDx=0;entryDy=0;entryPerimeter=0;" parent="1" target="TSalJSn5wfL2_M_Q7V2A-1" edge="1">
          <mxGeometry relative="1" as="geometry">
            <mxPoint x="140" y="277" as="targetPoint" />
            <mxPoint x="280" y="222" as="sourcePoint" />
          </mxGeometry>
        </mxCell>
        <mxCell id="TSalJSn5wfL2_M_Q7V2A-29" style="edgeStyle=orthogonalEdgeStyle;rounded=0;orthogonalLoop=1;jettySize=auto;html=1;exitX=1;exitY=0.75;exitDx=0;exitDy=0;entryX=0.5;entryY=0;entryDx=0;entryDy=0;" parent="1" target="TSalJSn5wfL2_M_Q7V2A-15" edge="1">
          <mxGeometry relative="1" as="geometry">
            <mxPoint x="620" y="266" as="targetPoint" />
            <mxPoint x="480" y="221" as="sourcePoint" />
          </mxGeometry>
        </mxCell>
        <mxCell id="TSalJSn5wfL2_M_Q7V2A-5" value="&lt;p style=&quot;margin:0px;margin-top:4px;text-align:center;&quot;&gt;Mahasiswa&lt;/p&gt;&lt;hr size=&quot;1&quot; style=&quot;border-style:solid;&quot;&gt;&lt;p style=&quot;margin:0px;margin-left:4px;&quot;&gt;Nama : String&lt;br&gt;NIM : String&lt;/p&gt;&lt;p style=&quot;margin:0px;margin-left:4px;&quot;&gt;Jurusan : String&lt;/p&gt;&lt;hr size=&quot;1&quot; style=&quot;border-style:solid;&quot;&gt;&lt;p style=&quot;margin:0px;margin-left:4px;&quot;&gt;__construct(nama,nim,jurusan)&lt;br&gt;InfoMahasiswa(): String&lt;/p&gt;&lt;p style=&quot;margin:0px;margin-left:4px;&quot;&gt;Cekkelulusan(): String&lt;/p&gt;" style="verticalAlign=top;align=left;overflow=fill;html=1;whiteSpace=wrap;" parent="1" vertex="1">
          <mxGeometry x="280" y="100" width="200" height="150" as="geometry" />
        </mxCell>
        <mxCell id="TSalJSn5wfL2_M_Q7V2A-15" value="Mahasiswa1" style="swimlane;fontStyle=0;childLayout=stackLayout;horizontal=1;startSize=26;fillColor=none;horizontalStack=0;resizeParent=1;resizeParentMax=0;resizeLast=0;collapsible=1;marginBottom=0;whiteSpace=wrap;html=1;" parent="1" vertex="1">
          <mxGeometry x="520" y="280" width="200" height="110" as="geometry" />
        </mxCell>
        <mxCell id="TSalJSn5wfL2_M_Q7V2A-16" value="Nama : Marsya Vanya&amp;nbsp;" style="text;strokeColor=none;fillColor=none;align=left;verticalAlign=top;spacingLeft=4;spacingRight=4;overflow=hidden;rotatable=0;points=[[0,0.5],[1,0.5]];portConstraint=eastwest;whiteSpace=wrap;html=1;" parent="TSalJSn5wfL2_M_Q7V2A-15" vertex="1">
          <mxGeometry y="26" width="200" height="26" as="geometry" />
        </mxCell>
        <mxCell id="TSalJSn5wfL2_M_Q7V2A-17" value="NIM : 23.240.0070" style="text;strokeColor=none;fillColor=none;align=left;verticalAlign=top;spacingLeft=4;spacingRight=4;overflow=hidden;rotatable=0;points=[[0,0.5],[1,0.5]];portConstraint=eastwest;whiteSpace=wrap;html=1;" parent="TSalJSn5wfL2_M_Q7V2A-15" vertex="1">
          <mxGeometry y="52" width="200" height="26" as="geometry" />
        </mxCell>
        <mxCell id="TSalJSn5wfL2_M_Q7V2A-18" value="Jurusan : Teknik Informatika&lt;div&gt;&lt;br&gt;&lt;/div&gt;" style="text;strokeColor=none;fillColor=none;align=left;verticalAlign=top;spacingLeft=4;spacingRight=4;overflow=hidden;rotatable=0;points=[[0,0.5],[1,0.5]];portConstraint=eastwest;whiteSpace=wrap;html=1;" parent="TSalJSn5wfL2_M_Q7V2A-15" vertex="1">
          <mxGeometry y="78" width="200" height="32" as="geometry" />
        </mxCell>
        <mxCell id="TSalJSn5wfL2_M_Q7V2A-30" value="create" style="text;html=1;align=center;verticalAlign=middle;resizable=0;points=[];autosize=1;strokeColor=none;fillColor=none;" parent="1" vertex="1">
          <mxGeometry x="150" y="188" width="60" height="30" as="geometry" />
        </mxCell>
        <mxCell id="TSalJSn5wfL2_M_Q7V2A-31" value="create" style="text;html=1;align=center;verticalAlign=middle;resizable=0;points=[];autosize=1;strokeColor=none;fillColor=none;" parent="1" vertex="1">
          <mxGeometry x="550" y="188" width="60" height="30" as="geometry" />
        </mxCell>
      </root>
    </mxGraphModel>
  </diagram>
</mxfile>
